<svg xmlns="http://www.w3.org/2000/svg" width="46.749" height="32.725" viewBox="0 0 46.749 32.725">
  <g id="Group_30" data-name="Group 30" transform="translate(-664.457 -784.027)">
    <g id="Group_29" data-name="Group 29">
      <g id="Group_28" data-name="Group 28">
        <g id="Group_27" data-name="Group 27">
          <path id="Path_52" data-name="Path 52" d="M708.868,784.027H666.795a2.3,2.3,0,0,0-2.338,2.338v15.583a2.3,2.3,0,0,0,2.338,2.337h42.073a2.3,2.3,0,0,0,2.338-2.337V786.365A2.3,2.3,0,0,0,708.868,784.027Zm.78,17.921a.737.737,0,0,1-.78.779H666.795a.736.736,0,0,1-.779-.779V786.365a.78.78,0,0,1,.779-.779h42.073a.735.735,0,0,1,.779.779v15.583Z"/>
          <path id="Path_53" data-name="Path 53" d="M684.715,791.04h6.233a.779.779,0,0,0,0-1.558h-6.233a.779.779,0,1,0,0,1.558Z"/>
          <path id="Path_54" data-name="Path 54" d="M707.31,799.61H668.353a.78.78,0,0,0,0,1.559H707.31a.78.78,0,0,0,0-1.559Z"/>
          <path id="Path_55" data-name="Path 55" d="M707.31,796.494H668.353a.779.779,0,1,0,0,1.558H707.31a.779.779,0,0,0,0-1.558Z"/>
          <path id="Path_56" data-name="Path 56" d="M688.221,809.817c-.779-.39-1.169-.857-1.169-1.247s.468-.857,1.091-1.324a.744.744,0,0,0,.312-1.013.688.688,0,0,0-1.013-.312,3.223,3.223,0,0,0-1.948,2.649,3.428,3.428,0,0,0,1.948,2.727c.779.39,1.169.858,1.169,1.247s-.468.857-1.169,1.247a.688.688,0,0,0-.312,1.013.821.821,0,0,0,.7.389.7.7,0,0,0,.389-.078,3.221,3.221,0,0,0,1.948-2.649A3.125,3.125,0,0,0,688.221,809.817Z"/>
          <path id="Path_57" data-name="Path 57" d="M679.651,811.375c-.779-.389-1.169-.857-1.169-1.246s.467-.857,1.091-1.325a.749.749,0,0,0-.7-1.324,3.221,3.221,0,0,0-1.948,2.649,3.428,3.428,0,0,0,1.948,2.727c.779.389,1.168.857,1.168,1.246s-.467.857-1.168,1.247a.687.687,0,0,0-.312,1.013.817.817,0,0,0,.7.39.7.7,0,0,0,.39-.078,3.225,3.225,0,0,0,1.948-2.649A3.129,3.129,0,0,0,679.651,811.375Z"/>
          <path id="Path_58" data-name="Path 58" d="M696.792,811.375c-.779-.389-1.169-.857-1.169-1.246s.468-.857,1.091-1.325a.744.744,0,0,0,.311-1.013.687.687,0,0,0-1.012-.311,3.221,3.221,0,0,0-1.948,2.649,3.428,3.428,0,0,0,1.948,2.727c.779.389,1.168.857,1.168,1.246s-.467.857-1.168,1.247a.687.687,0,0,0-.312,1.013.819.819,0,0,0,.7.39.7.7,0,0,0,.39-.078,3.225,3.225,0,0,0,1.948-2.649A3.129,3.129,0,0,0,696.792,811.375Z"/>
        </g>
      </g>
    </g>
  </g>
</svg>
