<svg xmlns="http://www.w3.org/2000/svg" width="134" height="178" viewBox="0 0 134 178">
  <g id="Subtraction_1" data-name="Subtraction 1" transform="translate(0 -30)" fill="#fff">
    <path d="M 67.00054931640625 205.6515655517578 C 65.46785736083984 204.6932525634766 62.32179641723633 202.6736755371094 58.29983139038086 199.8112030029297 C 52.92885589599609 195.9886169433594 44.78844833374023 189.8011627197266 36.50890350341797 182.0321502685547 C 27.23202133178711 173.327392578125 19.6784725189209 164.4559020996094 14.05806827545166 155.6640930175781 C 10.74097347259521 150.4752960205078 8.071331024169922 145.2599029541016 6.123306751251221 140.1627349853516 C 3.993378162384033 134.5897521972656 2.674116373062134 129.020751953125 2.202163934707642 123.6103973388672 L 2.042878150939941 121.7842025756836 L 1.99999725818634 121.7842025756836 L 1.99999725818634 118.9998016357422 L 1.99999725818634 37.35139083862305 C 3.030760049819946 38.54790496826172 4.258067607879639 39.71218872070312 5.678425788879395 40.83942031860352 C 9.516545295715332 43.88546752929688 14.67328262329102 46.58851623535156 21.00540161132812 48.87351608276367 C 33.60549545288086 53.42034912109375 49.94021224975586 55.92441940307617 67.00049591064453 55.92441940307617 C 84.06044769287109 55.92441940307617 100.394905090332 53.42034912109375 112.9948577880859 48.87351608276367 C 119.3267822265625 46.58856201171875 124.4834518432617 43.88546752929688 128.3216400146484 40.83937072753906 C 129.7422637939453 39.71191024780273 130.9692535400391 38.54799270629883 132.0001373291016 37.35125350952148 L 132.0001220703125 121.7842025756836 L 131.9573364257812 121.7842025756836 L 131.7980041503906 123.6103744506836 C 131.325927734375 129.0210418701172 130.0066680908203 134.5900573730469 127.8768539428711 140.1627349853516 C 125.9288330078125 145.2598724365234 123.2592315673828 150.4752807617188 119.9422149658203 155.6640930175781 C 114.3218765258789 164.4559020996094 106.768424987793 173.327392578125 97.49163818359375 182.0321807861328 C 92.92195129394531 186.3201751708984 85.43206787109375 192.8854217529297 75.70101928710938 199.8112335205078 C 71.67751312255859 202.6748504638672 68.53286743164062 204.6935272216797 67.00054931640625 205.6515655517578 Z" stroke="none"/>
    <path d="M 67.00048828125 203.2849578857422 C 68.69451904296875 202.2021026611328 71.33711242675781 200.4623107910156 74.54132843017578 198.1817932128906 C 84.18128204345703 191.32080078125 91.59841156005859 184.8194885253906 96.12309265136719 180.5737152099609 C 105.2789916992188 171.9823760986328 112.725959777832 163.2391204833984 118.2570953369141 154.5868835449219 C 121.5010986328125 149.5122680664062 124.1090927124023 144.4190826416016 126.0086441040039 139.4487457275391 C 128.0721740722656 134.0494537353516 129.3496551513672 128.6621704101562 129.8055419921875 123.4365386962891 L 130.0001220703125 121.2063293457031 L 130.0001373291016 42.05477523803711 C 129.8568572998047 42.17234420776367 129.7119750976562 42.28923797607422 129.5649108886719 42.40595626831055 C 125.5565719604492 45.58711242675781 120.2099914550781 48.39606094360352 113.6737289428711 50.7547721862793 C 100.8615417480469 55.37819290161133 84.28601837158203 57.92443084716797 67.00051879882812 57.92443084716797 C 49.71464920043945 57.92443084716797 33.13883209228516 55.37819290161133 20.32654190063477 50.7547721862793 C 13.79006862640381 48.39603424072266 8.443410873413086 45.58711242675781 4.435147762298584 42.40600967407227 C 4.288351058959961 42.28950881958008 4.143053531646729 42.17226791381836 4.000016212463379 42.05491256713867 L 4.000016212463379 118.9998016357422 L 4.000016212463379 121.2059936523438 L 4.194594860076904 123.4365844726562 C 4.650436878204346 128.6620025634766 5.927884578704834 134.0492706298828 7.99151611328125 139.4487762451172 C 9.891095161437988 144.4191436767578 12.49912166595459 149.5123291015625 15.74314785003662 154.5868530273438 C 21.27430534362793 163.2390594482422 28.72135734558105 171.9822998046875 37.87743759155273 180.5736999511719 C 46.07548904418945 188.2661895751953 54.13883209228516 194.3949584960938 59.45948791503906 198.1817779541016 C 62.6640510559082 200.4624633789062 65.30690002441406 202.202392578125 67.00048828125 203.2849578857422 M 67.00051879882812 207.9999237060547 L 66.99999237060547 207.9996185302734 C 66.96041107177734 207.9760284423828 62.97525405883789 205.5935668945312 57.14012145996094 201.440673828125 C 51.7188835144043 197.5822906494141 43.50149154663086 191.3361358642578 35.14038467407227 183.4906463623047 C 25.74264717102051 174.6724853515625 18.08259582519531 165.6727142333984 12.37296295166016 156.7413177490234 C 8.982779502868652 151.4381866455078 6.251542568206787 146.1005859375 4.2550950050354 140.8767395019531 C 2.058884382247925 135.1303558349609 0.6978318095207214 129.3795928955078 0.209726557135582 123.7841949462891 L 1.603297096153256e-05 123.7841949462891 L 1.603297096153256e-05 118.9998016357422 L 1.603297096153256e-05 29.99971961975098 L 0.2731476128101349 29.99971961975098 C 1.767594933509827 36.51456069946289 9.371200561523438 42.54898071289062 21.68427848815918 46.99224472045898 C 34.07220077514648 51.4625358581543 50.16583251953125 53.92443084716797 67.00051879882812 53.92443084716797 C 83.83483123779297 53.92443084716797 99.92817687988281 51.4625358581543 112.3159637451172 46.99224472045898 C 124.6286468505859 42.5490608215332 132.2325744628906 36.51435089111328 133.7269897460938 29.99971961975098 L 134.0001525878906 29.99971961975098 L 134.0001220703125 123.7841949462891 L 133.7904052734375 123.7841949462891 C 133.3021697998047 129.3804321289062 131.9408111572266 135.1315307617188 129.7450714111328 140.8767395019531 C 127.748649597168 146.1005401611328 125.0174407958984 151.4381408691406 121.6273040771484 156.7413177490234 C 115.9177017211914 165.6727447509766 108.2577514648438 174.6725158691406 98.86017608642578 183.4906463623047 C 94.24546051025391 187.8208770751953 86.68277740478516 194.4500885009766 76.86075592041016 201.440673828125 C 71.0255126953125 205.59375 67.04059600830078 207.9760284423828 67.00101470947266 207.9996185302734 L 67.00051879882812 207.9999237060547 Z" stroke="none" fill="#3a4660"/>
    <g id="Group_32" data-name="Group 32" transform="translate(25 90)">
      <path id="Path_19" data-name="Path 19" d="M85.237,89.24a1.778,1.778,0,0,0-1.639-.215L68.991,94.337a7.114,7.114,0,0,0-4.059,3.734,7.2,7.2,0,0,0-.35,1.009,66.215,66.215,0,0,1-11.8-4.589c-7-3.607-12.348-1.825-16.934,1.673-2.324.046-5.527.32-8.676.6-2.009.177-3.907.34-5.446.434a7.168,7.168,0,0,0-4.713-6.443L2.4,85.441A1.791,1.791,0,0,0,0,87.124v35.834a1.791,1.791,0,0,0,1.792,1.792H7.025A7.206,7.206,0,0,0,12.66,122c.713.542,1.558,1.177,2.443,1.842,2.091,1.573,4.38,3.289,5.384,4.131,6.672,5.585,14.692,11.616,16.29,12.666A13.15,13.15,0,0,0,43,142.667a6.578,6.578,0,0,0,4.227-1.2,5.757,5.757,0,0,0,4.49-.1,6.716,6.716,0,0,0,3.323-3.324,6.975,6.975,0,0,0,4.465-.654,6.108,6.108,0,0,0,2.911-2.931,5.63,5.63,0,0,0,3.914-1.249,5.806,5.806,0,0,0,2.348-5.314l4.545-2.514a7.178,7.178,0,0,0,5.752,2.949h5.233A1.791,1.791,0,0,0,86,126.541V90.708A1.792,1.792,0,0,0,85.237,89.24Zm-74.856,29.6a3.6,3.6,0,0,1-3.356,2.325H3.583V89.682l12.2,4.437a3.585,3.585,0,0,1,2.131,4.624Zm53.775,11.525c-.607.465-1.457.724-1.835.347-.019-.019-.049-.017-.069-.036s-.051-.075-.088-.1c-1.281-1.011-7.02-6.883-10.566-10.582a1.791,1.791,0,1,0-2.586,2.478c.832.869,7.515,7.829,10.19,10.263a2.474,2.474,0,0,1-1.3,1.458,2.761,2.761,0,0,1-2.793.063c-.013-.012-.033-.012-.047-.024s-.032-.047-.055-.065c-2.149-1.716-7.539-7.445-8.759-8.771a1.792,1.792,0,0,0-2.638,2.425c.059.064,5.342,5.762,8.309,8.409a3.149,3.149,0,0,1-1.648,1.868,2.339,2.339,0,0,1-2.448-.365c-2.573-2.182-7.737-7.678-8.752-8.765a1.791,1.791,0,1,0-2.617,2.446c1.2,1.289,4.763,5.061,7.468,7.615a7.746,7.746,0,0,1-.921.058,9.848,9.848,0,0,1-4.255-1.435c-1.256-.826-9.144-6.712-15.956-12.416-1.031-.864-3.382-2.633-5.534-4.25-1.153-.866-2.216-1.664-3-2.267l6.708-17.892c1.741-.076,4.063-.277,6.52-.493,1.39-.122,2.781-.242,4.11-.345-2.043,2.1-5.081,5.854-4.681,9.375a5.164,5.164,0,0,0,2.539,3.862c2.927,1.832,8.346.3,10.957-2.915a12.456,12.456,0,0,0,4.066-1.29c2.1,1.974,4.915,4.294,7.872,6.731C57.5,119.991,63.33,124.8,64.874,127.5A2.159,2.159,0,0,1,64.156,130.367ZM67.23,124.6c-2.387-3.193-7.562-7.466-12.6-11.621-3.361-2.77-6.535-5.386-8.567-7.417a1.8,1.8,0,0,0-2.112-.313,10.355,10.355,0,0,1-4.708,1.589,1.793,1.793,0,0,0-1.337.828c-1.405,2.229-5.31,3.289-6.549,2.516a1.591,1.591,0,0,1-.878-1.23c-.173-1.524,1.37-4.162,3.93-6.724,6.339-6.339,10.871-7.58,16.734-4.556a69.511,69.511,0,0,0,13.376,5.11,7.189,7.189,0,0,0,.213.8l6.957,18.553Zm15.188.145H78.976a3.6,3.6,0,0,1-3.356-2.325l-7.536-20.1A3.586,3.586,0,0,1,70.215,97.7l12.2-4.437V124.75Z" transform="translate(0 -85.333)" fill="#3a4660"/>
    </g>
  </g>
</svg>
