<svg xmlns="http://www.w3.org/2000/svg" xmlns:xlink="http://www.w3.org/1999/xlink" width="53" height="53" viewBox="0 0 53 53">
  <defs>
    <clipPath id="clip-path">
      <rect id="Rectangle_8" data-name="Rectangle 8" width="53" height="53" transform="translate(664 659)" fill="#fff" stroke="#fff" stroke-width="1"/>
    </clipPath>
  </defs>
  <g id="Mask_Group_2" data-name="Mask Group 2" transform="translate(-664 -659)" clip-path="url(#clip-path)">
    <g id="radiatorNew" transform="translate(673.997 664.589)">
      <path id="Path_59" data-name="Path 59" d="M38.923,35.946V22.808a.523.523,0,0,0,.017-.1c.094-1.405.021-2.818-.01-4.224a.606.606,0,0,0-.007-.071V9h.01c-.017-.611-.022-1.221-.019-1.825V7.126c0-.825.017-1.648.022-2.474h-.011V2.1A2.088,2.088,0,0,0,36.837.012H35.519A2.088,2.088,0,0,0,33.433,2.1V4.652H32V2.135A2.088,2.088,0,0,0,29.916.05H28.594a2.088,2.088,0,0,0-2.086,2.085V4.652H25.073V2.135A2.088,2.088,0,0,0,22.987.05H21.669a2.088,2.088,0,0,0-2.085,2.085V4.652H18.148V2.135A2.088,2.088,0,0,0,16.062.05H14.74a2.088,2.088,0,0,0-2.085,2.085V4.652H11.223V2.135A2.088,2.088,0,0,0,9.137.05H7.819A2.088,2.088,0,0,0,5.733,2.135V4.652H5.674V4.7a.413.413,0,0,1,.006.174c.011.131.032.262.044.39a7.365,7.365,0,0,1,.017.8l-.005.262V7.686H5.723V7.8a5.566,5.566,0,0,1,.012,1.642V35.946h0a5.773,5.773,0,0,1-.006,1.164l.01.144v2.474a2.088,2.088,0,0,0,2.086,2.085H9.144a2.088,2.088,0,0,0,2.086-2.085v-.7h1.435v.7A2.088,2.088,0,0,0,14.7,41.812a2.8,2.8,0,0,1,.635.009c.241.012.478.01.716.013v-.021h.014a2.088,2.088,0,0,0,2.086-2.085v-.7H19.59v.7a2.088,2.088,0,0,0,2.085,2.085h1.319a2.088,2.088,0,0,0,2.085-2.085v-.7h1.436v.7A2.088,2.088,0,0,0,28.6,41.813h.007v.007q.764-.012,1.527-.019A2.088,2.088,0,0,0,32,39.728v-.7h1.435v.665a2.093,2.093,0,0,0,2.086,2.088h1.318a2.093,2.093,0,0,0,2.086-2.086V37.254h.019c-.009-.436-.011-.872.005-1.308ZM11.223,5.96h1.435V7.688H11.223Zm-1.286,8.9v.077a.654.654,0,0,0-.021.161V39.728a.779.779,0,0,1-.778.777H7.819a.779.779,0,0,1-.778-.777V2.137a.779.779,0,0,1,.778-.778H9.137a.779.779,0,0,1,.778.778v9.127a.657.657,0,0,0,.04.23A22.054,22.054,0,0,0,9.938,14.863Zm2.72,22.851H11.223V35.987h1.435Zm0-3.035H11.223V15.142a.429.429,0,0,0,.058-.219q.018-1.81-.061-3.616V8.991h1.435Zm4.186,5.046a.779.779,0,0,1-.778.777H14.74a.778.778,0,0,1-.777-.777V2.134a.779.779,0,0,1,.777-.776h1.319a.779.779,0,0,1,.778.778ZM18.153,5.958h1.436v1.73H18.148Zm1.436,31.756h-1.44V35.987h1.435Zm.031-6.781a.714.714,0,0,0-.031.214v3.532h-1.44V9h1.435V27.423a.442.442,0,0,0-.021.16,29.246,29.246,0,0,1,.052,3.352Zm4.145,8.8a.778.778,0,0,1-.777.777H21.669a.778.778,0,0,1-.777-.777V31.149a.686.686,0,0,0-.028-.2q.047-1.521.028-3.044a.468.468,0,0,0-.026-.149.706.706,0,0,0,.026-.188V2.136a.779.779,0,0,1,.777-.778h1.319a.779.779,0,0,1,.777.778Zm2.743-2.011H25.073V35.99h1.435Zm0-3.035H25.073V9h1.435Zm0-26.993H25.073V5.96h1.435Zm4.182,32.04a.778.778,0,0,1-.777.777H28.594a.779.779,0,0,1-.778-.777V2.137a.779.779,0,0,1,.778-.778h1.322a.779.779,0,0,1,.777.778Zm2.743-2.011H32V35.99h1.435Zm0-3.035H32V9h1.435Zm0-26.993H32V5.96h1.435Zm4.182,14.827V39.69a.779.779,0,0,1-.778.778H35.519a.779.779,0,0,1-.778-.778V2.1a.779.779,0,0,1,.778-.777h1.318a.779.779,0,0,1,.778.777v16.27a.468.468,0,0,0-.017.13q.016,1.889.03,3.778a.485.485,0,0,0,.006.072.753.753,0,0,0-.018.166Z" transform="translate(-5.671 -0.012)"/>
      <path id="Path_60" data-name="Path 60" d="M64.252,17.319a.436.436,0,0,0,0,.872A.436.436,0,0,0,64.252,17.319Z" transform="translate(-5.671 -0.012)"/>
    </g>
  </g>
</svg>
