<svg id="Capa_1" data-name="Capa 1" xmlns="http://www.w3.org/2000/svg" viewBox="0 0 480 480"><defs><style>.cls-1{fill:none;stroke:#999;stroke-miterlimit:10;stroke-width:20px;}.cls-2{fill:#999;}</style></defs><title>information_icon</title><circle class="cls-1" cx="240" cy="240" r="230"/><path class="cls-2" d="M295.39,376.11h-92.8a15,15,0,0,1-10.8-4.4,14.64,14.64,0,0,1-4.4-10.8,15,15,0,0,1,4.4-10.7,14.73,14.73,0,0,1,10.8-4.5h31.2V231.91H203a14.73,14.73,0,0,1-10.8-4.5,14.57,14.57,0,0,1-4.4-10.7,15.67,15.67,0,0,1,4.4-11,14.45,14.45,0,0,1,10.8-4.6h46.4a14.45,14.45,0,0,1,10.8,4.6,15.09,15.09,0,0,1,4.4,11v128.9h30.5a15.67,15.67,0,0,1,11,4.4,14.45,14.45,0,0,1,4.6,10.8,14.73,14.73,0,0,1-4.5,10.8A15.23,15.23,0,0,1,295.39,376.11Zm-62-254.1h16a15,15,0,0,1,10.8,4.4,14.64,14.64,0,0,1,4.4,10.8v13.1a15.67,15.67,0,0,1-4.4,11,14.29,14.29,0,0,1-10.8,4.6h-16.3a14.66,14.66,0,0,1-11-4.7,14.11,14.11,0,0,1-4.3-10.5l.4-13.4a15,15,0,0,1,4.4-10.8A14.41,14.41,0,0,1,233.39,122Z" transform="translate(-8.89 -9.01)"/></svg>