<svg xmlns="http://www.w3.org/2000/svg" width="66.113" height="66.1" viewBox="0 0 66.113 66.1">
  <g id="Instagram_Footer" transform="translate(-4.1 -4.1)">
    <path id="Path_20" data-name="Path 20" d="M37.144,10.055c8.828,0,9.865.039,13.354.2a18.034,18.034,0,0,1,6.139,1.141,10.256,10.256,0,0,1,3.8,2.466,10.1,10.1,0,0,1,2.466,3.8A18.371,18.371,0,0,1,64.048,23.8c.157,3.489.2,4.526.2,13.354s-.039,9.865-.2,13.354a18.034,18.034,0,0,1-1.141,6.139,10.256,10.256,0,0,1-2.466,3.8,10.1,10.1,0,0,1-3.8,2.466A18.371,18.371,0,0,1,50.5,64.061c-3.489.157-4.526.2-13.354.2s-9.865-.039-13.354-.2a18.034,18.034,0,0,1-6.139-1.141,10.256,10.256,0,0,1-3.8-2.466,10.1,10.1,0,0,1-2.466-3.8,18.371,18.371,0,0,1-1.141-6.139c-.157-3.489-.2-4.526-.2-13.354s.039-9.865.2-13.354a18.034,18.034,0,0,1,1.141-6.139,10.256,10.256,0,0,1,2.466-3.8,10.1,10.1,0,0,1,3.8-2.466,18.371,18.371,0,0,1,6.139-1.141c3.489-.171,4.526-.2,13.354-.2m0-5.955c-8.973,0-10.1.039-13.629.2A24.221,24.221,0,0,0,15.5,5.832a16.107,16.107,0,0,0-5.85,3.817A16.391,16.391,0,0,0,5.832,15.5,24.237,24.237,0,0,0,4.3,23.527c-.157,3.516-.2,4.644-.2,13.616s.039,10.1.2,13.629A24.38,24.38,0,0,0,5.832,58.8a16.107,16.107,0,0,0,3.817,5.85,16.391,16.391,0,0,0,5.85,3.817A24.237,24.237,0,0,0,23.527,70c3.529.157,4.644.2,13.629.2s10.1-.039,13.629-.2a24.38,24.38,0,0,0,8.028-1.535,16.107,16.107,0,0,0,5.851-3.817,16.391,16.391,0,0,0,3.817-5.85,24.237,24.237,0,0,0,1.535-8.028c.157-3.529.2-4.644.2-13.629s-.039-10.1-.2-13.629a24.38,24.38,0,0,0-1.535-8.028,16.107,16.107,0,0,0-3.817-5.85,16.391,16.391,0,0,0-5.851-3.817,24.237,24.237,0,0,0-8.028-1.535c-3.542-.144-4.67-.184-13.642-.184Z" fill="#3C414D"/>
    <path id="Path_21" data-name="Path 21" d="M143.574,126.6a16.974,16.974,0,1,0,16.974,16.974A16.977,16.977,0,0,0,143.574,126.6Zm0,27.993a11.019,11.019,0,1,1,11.019-11.019A11.018,11.018,0,0,1,143.574,154.593Z" transform="translate(-106.431 -106.431)" fill="#3C414D"/>
    <circle id="Ellipse_3" data-name="Ellipse 3" cx="3.962" cy="3.962" r="3.962" transform="translate(50.825 15.539)" fill="#3C414D"/>
  </g>
</svg>
