<svg xmlns="http://www.w3.org/2000/svg" width="45.135" height="15.64" viewBox="0 0 45.135 15.64">
  <path id="key007_-_E0BB" data-name="key007 - E0BB" d="M21.24-31.2H-8.283a7.843,7.843,0,0,0-7.792-7.083,7.836,7.836,0,0,0-7.82,7.82,7.836,7.836,0,0,0,7.82,7.82,7.843,7.843,0,0,0,7.792-7.083H6v7.083H16.168v-7.083H21.24Zm-37.315,7.083a6.336,6.336,0,0,1-6.347-6.347,6.336,6.336,0,0,1,6.347-6.347A6.336,6.336,0,0,1-9.728-30.46,6.336,6.336,0,0,1-16.075-24.113Zm30.77,0H7.47v-5.61h7.225Z" transform="translate(23.895 38.28)"/>
</svg>
