<svg xmlns="http://www.w3.org/2000/svg" width="41.706" height="47.906" viewBox="0 0 41.706 47.906">
  <path id="food010_-_E208" data-name="food010 - E208" d="M-6.61-34.073a.769.769,0,0,1-.482-.17c-2.323-1.983-3.372-3.995-3.2-6.177a12.49,12.49,0,0,1,2.182-5.3,15.465,15.465,0,0,0,1.927-4.193,5.107,5.107,0,0,0-1.02-4.307.73.73,0,0,1,.17-1.02.725.725,0,0,1,1.02.17A6.614,6.614,0,0,1-4.74-49.6a16.221,16.221,0,0,1-2.125,4.618,11.982,11.982,0,0,0-1.983,4.675c-.113,1.7.737,3.258,2.72,4.93a.754.754,0,0,1,.085,1.048A.755.755,0,0,1-6.61-34.073Zm5.865,0a.769.769,0,0,1-.482-.17A4.887,4.887,0,0,1-3.3-38.238a8.481,8.481,0,0,1,1.388-3.4A9.206,9.206,0,0,0-.745-44.1a2.948,2.948,0,0,0-.595-2.408.73.73,0,0,1,.17-1.02.725.725,0,0,1,1.02.17,4.262,4.262,0,0,1,.822,3.57,10.355,10.355,0,0,1-1.3,2.918,7.072,7.072,0,0,0-1.19,2.72A3.528,3.528,0,0,0-.263-35.376a.754.754,0,0,1,.085,1.048A.713.713,0,0,1-.745-34.073Zm14.677,6.885a5.714,5.714,0,0,1,5.695,5.695A5.714,5.714,0,0,1,13.931-15.8a5.526,5.526,0,0,1-3.173-.963A19.582,19.582,0,0,1,8.236-13.22,18.311,18.311,0,0,1,2.6-9.027,16.022,16.022,0,0,1-4.343-7.468a16.022,16.022,0,0,1-6.942-1.558,18.311,18.311,0,0,1-5.638-4.193,19.493,19.493,0,0,1-3.768-6.2,20.858,20.858,0,0,1-1.388-7.593V-30.56a.75.75,0,0,1,.737-.737h34a.75.75,0,0,1,.737.737v3.4C13.563-27.16,13.733-27.188,13.931-27.188Zm-6.8,12.977a18.908,18.908,0,0,0,3.513-5.752,19.817,19.817,0,0,0,1.275-7.055v-2.8H-20.607v2.8a19.817,19.817,0,0,0,1.275,7.055,18.908,18.908,0,0,0,3.513,5.752,16.512,16.512,0,0,0,5.157,3.853A14.9,14.9,0,0,0-4.343-8.942a14.9,14.9,0,0,0,6.318-1.417A16.512,16.512,0,0,0,7.131-14.211Zm6.8-3.06a4.232,4.232,0,0,0,4.222-4.222,4.232,4.232,0,0,0-4.222-4.222,3.488,3.488,0,0,0-.567.057A21.346,21.346,0,0,1,12-19.425c-.17.453-.368.907-.567,1.36A4.154,4.154,0,0,0,13.931-17.271Z" transform="translate(22.08 55.374)"/>
</svg>
