<svg xmlns="http://www.w3.org/2000/svg" xmlns:xlink="http://www.w3.org/1999/xlink" width="64" height="59" viewBox="0 0 64 59">
  <defs>
    <clipPath id="clip-path">
      <rect id="Rectangle_147" data-name="Rectangle 147" width="64" height="59" transform="translate(507.281 893.643)" fill="#fff" stroke="#707070" stroke-width="1"/>
    </clipPath>
  </defs>
  <g id="Mask_Group_1" data-name="Mask Group 1" transform="translate(-507.281 -893.643)" clip-path="url(#clip-path)">
    <g id="sleeping-bag" transform="translate(526.708 894)">
      <path id="Path_24" data-name="Path 24" d="M39.073,16.546H33.738a10.048,10.048,0,0,0-9.782,10.272V40.653a50.186,50.186,0,0,0,1.361,11.6A48.242,48.242,0,0,1,26.624,63.4v2.63a8.223,8.223,0,0,0,8,8.4h3.558a8.22,8.22,0,0,0,8-8.4V63.411A48.13,48.13,0,0,1,47.5,52.259a50.186,50.186,0,0,0,1.359-11.6V26.818A10.048,10.048,0,0,0,39.073,16.546Zm8,24.107A48.235,48.235,0,0,1,45.77,51.8a50.186,50.186,0,0,0-1.362,11.6v2.63a6.4,6.4,0,0,1-6.223,6.535H34.627A6.4,6.4,0,0,1,28.4,66.033V63.411a50.159,50.159,0,0,0-1.361-11.6,48.282,48.282,0,0,1-1.306-11.155V26.818a8.22,8.22,0,0,1,8-8.4h5.335a8.22,8.22,0,0,1,8,8.4Z" transform="translate(-23.957 -16.546)"/>
      <path id="Path_25" data-name="Path 25" d="M39.775,20.806H34.44a6.4,6.4,0,0,0-6.226,6.535v7.471H46V27.342A6.4,6.4,0,0,0,39.775,20.806Zm4.447,12.14H29.993V27.342a4.565,4.565,0,0,1,4.447-4.667h5.335a4.565,4.565,0,0,1,4.447,4.667Z" transform="translate(-24.658 -17.069)"/>
      <path id="Path_26" data-name="Path 26" d="M42.787,28.072A4.9,4.9,0,1,0,37.9,33.208a5.018,5.018,0,0,0,4.891-5.136ZM37.9,31.35a3.276,3.276,0,1,0,0-.01Z" transform="translate(-25.447 -17.331)"/>
    </g>
  </g>
</svg>
