<svg xmlns="http://www.w3.org/2000/svg" width="44.28" height="32.49" viewBox="0 0 44.28 32.49">
  <path id="wifi001_-_E021" data-name="wifi001 - E021" d="M10.77-44.07A27.685,27.685,0,0,0-.03-46.26a27.685,27.685,0,0,0-10.8,2.19,27.761,27.761,0,0,0-8.85,5.97,24.358,24.358,0,0,0-2.46,2.82l1.23.96a32.76,32.76,0,0,1,2.34-2.7,26.188,26.188,0,0,1,8.34-5.61A26.374,26.374,0,0,1-.03-44.7a26.374,26.374,0,0,1,10.2,2.07,26.188,26.188,0,0,1,8.34,5.61,29.834,29.834,0,0,1,2.4,2.76l1.23-.96a28.86,28.86,0,0,0-2.52-2.88A27.761,27.761,0,0,0,10.77-44.07ZM7.98-37.8A20.877,20.877,0,0,0-.03-39.42,20.877,20.877,0,0,0-8.04-37.8a20.621,20.621,0,0,0-6.54,4.41,19.194,19.194,0,0,0-2.04,2.4l1.23.96a19.08,19.08,0,0,1,1.92-2.25,19.137,19.137,0,0,1,6.03-4.08,18.908,18.908,0,0,1,7.41-1.5,18.908,18.908,0,0,1,7.41,1.5,19.137,19.137,0,0,1,6.03,4.08,20.642,20.642,0,0,1,1.98,2.31l1.23-.96a20.245,20.245,0,0,0-2.1-2.46A20.621,20.621,0,0,0,7.98-37.8ZM5.25-31.68A13.3,13.3,0,0,0-.03-32.76a13.3,13.3,0,0,0-5.28,1.08,13.546,13.546,0,0,0-4.32,2.91,12.951,12.951,0,0,0-1.62,1.98l1.23.96a11.082,11.082,0,0,1,1.5-1.83,12.062,12.062,0,0,1,3.81-2.58A11.984,11.984,0,0,1-.03-31.2a11.984,11.984,0,0,1,4.68.96,12.062,12.062,0,0,1,3.81,2.58,13.388,13.388,0,0,1,1.56,1.89l1.23-.96a15.564,15.564,0,0,0-1.68-2.04A13.546,13.546,0,0,0,5.25-31.68ZM-.03-13.77A6.03,6.03,0,0,0,6-19.8,6.05,6.05,0,0,0-.03-25.83,6.05,6.05,0,0,0-6.06-19.8,6.03,6.03,0,0,0-.03-13.77Zm0-10.5A4.481,4.481,0,0,1,4.44-19.8,4.462,4.462,0,0,1-.03-15.33,4.462,4.462,0,0,1-4.5-19.8,4.481,4.481,0,0,1-.03-24.27Z" transform="translate(22.14 46.26)"/>
</svg>
